<svg width="36" height="36" viewBox="0 0 36 36" fill="none" xmlns="http://www.w3.org/2000/svg">
<g id="Frame" clip-path="url(#clip0_51_8)">
<g id="Group">
<path id="Vector" d="M36 18C36 8.05781 27.9422 0 18 0C8.05781 0 0 8.05781 0 18C0 26.9859 6.58125 34.432 15.1875 35.782V23.2031H10.6172V18H15.1875V14.0344C15.1875 9.52383 17.8734 7.03125 21.9867 7.03125C23.9555 7.03125 26.0156 7.38281 26.0156 7.38281V11.8125H23.7445C21.5086 11.8125 20.8125 13.2012 20.8125 14.625V18H25.8047L25.0066 23.2031H20.8125V35.782C29.4188 34.432 36 26.9859 36 18Z" fill="black"/>
</g>
</g>
<defs>
<clipPath id="clip0_51_8">
<rect width="36" height="36" fill="white"/>
</clipPath>
</defs>
</svg>
