<svg width="36" height="36" viewBox="0 0 36 36" fill="none" xmlns="http://www.w3.org/2000/svg">
<g id="Google">
<path id="Combined-Shape" fill-rule="evenodd" clip-rule="evenodd" d="M0 18C0 8.05887 8.05887 0 18 0C27.9411 0 36 8.05887 36 18C36 27.9411 27.9411 36 18 36C8.05887 36 0 27.9411 0 18ZM17.974 13.216C19.4366 13.216 20.4232 13.8487 20.9857 14.3773L23.1838 12.228C21.8338 10.9713 20.077 10.2 17.974 10.2C14.9278 10.2 12.2969 11.9507 11.0161 14.4987C10.4882 15.556 10.1853 16.7433 10.1853 18C10.1853 19.2567 10.4882 20.444 11.0161 21.5013L13.5431 19.5427L11.0247 21.5013C12.3056 24.0493 14.9278 25.8 17.974 25.8C20.077 25.8 21.8424 25.1067 23.1319 23.9107C24.6031 22.55 25.4512 20.548 25.4512 18.1733C25.4512 17.532 25.3993 17.064 25.2868 16.5787H17.974V19.4733H22.2665C22.1799 20.1927 21.7126 21.276 20.6741 22.004C20.0164 22.4633 19.1337 22.784 17.974 22.784C15.9143 22.784 14.1662 21.4233 13.5431 19.5427C13.3787 19.0573 13.2835 18.5373 13.2835 18C13.2835 17.4627 13.3787 16.9427 13.5344 16.4573C14.1662 14.5767 15.9143 13.216 17.974 13.216Z" fill="black"/>
</g>
</svg>
