<svg width="36" height="36" viewBox="0 0 36 36" fill="none" xmlns="http://www.w3.org/2000/svg">
<g id="Instagram">
<path id="Combined-Shape" fill-rule="evenodd" clip-rule="evenodd" d="M18 0C8.05887 0 0 8.05887 0 18C0 27.9411 8.05887 36 18 36C27.9411 36 36 27.9411 36 18C36 8.05887 27.9411 0 18 0ZM14.0424 8.458C15.0664 8.4114 15.3936 8.4 18.0009 8.4H17.9979C20.6059 8.4 20.9319 8.4114 21.9559 8.458C22.9779 8.5048 23.6759 8.6666 24.2879 8.904C24.9199 9.14901 25.4539 9.47701 25.9879 10.011C26.522 10.5446 26.85 11.0802 27.096 11.7116C27.332 12.322 27.494 13.0196 27.542 14.0417C27.588 15.0657 27.6 15.3929 27.6 18.0001C27.6 20.6073 27.588 20.9337 27.542 21.9577C27.494 22.9793 27.332 23.6772 27.096 24.2878C26.85 24.919 26.522 25.4546 25.9879 25.9882C25.4545 26.5222 24.9197 26.851 24.2885 27.0962C23.6777 27.3336 22.9793 27.4954 21.9573 27.5422C20.9333 27.5888 20.6071 27.6002 17.9997 27.6002C15.3926 27.6002 15.0656 27.5888 14.0416 27.5422C13.0198 27.4954 12.322 27.3336 11.7112 27.0962C11.0802 26.851 10.5446 26.5222 10.0112 25.9882C9.47738 25.4546 9.14937 24.919 8.90397 24.2876C8.66677 23.6772 8.50496 22.9795 8.45796 21.9575C8.41156 20.9335 8.39996 20.6073 8.39996 18.0001C8.39996 15.3929 8.41196 15.0655 8.45776 14.0415C8.50376 13.0198 8.66577 12.322 8.90377 11.7114C9.14977 11.0802 9.47777 10.5446 10.0118 10.011C10.5454 9.47721 11.081 9.14921 11.7124 8.904C12.3228 8.6666 13.0204 8.5048 14.0424 8.458Z" fill="black"/>
<path id="Combined-Shape_2" fill-rule="evenodd" clip-rule="evenodd" d="M17.1397 10.13C17.307 10.1298 17.4868 10.1298 17.681 10.1299L18.0009 10.13C20.5642 10.13 20.868 10.1392 21.8802 10.1852C22.8162 10.228 23.3242 10.3844 23.6626 10.5158C24.1106 10.6898 24.43 10.8978 24.7658 11.2338C25.1018 11.5698 25.3098 11.8898 25.4842 12.3378C25.6156 12.6759 25.7722 13.1839 25.8148 14.1199C25.8608 15.1319 25.8708 15.4359 25.8708 17.9979C25.8708 20.5599 25.8608 20.8639 25.8148 21.8759C25.772 22.812 25.6156 23.32 25.4842 23.658C25.3102 24.106 25.1018 24.425 24.7658 24.7608C24.4298 25.0968 24.1108 25.3048 23.6626 25.4788C23.3246 25.6108 22.8162 25.7668 21.8802 25.8096C20.8682 25.8556 20.5642 25.8656 18.0009 25.8656C15.4375 25.8656 15.1337 25.8556 14.1217 25.8096C13.1857 25.7664 12.6777 25.61 12.3391 25.4786C11.8911 25.3046 11.5711 25.0966 11.2351 24.7606C10.8991 24.4246 10.6911 24.1054 10.5167 23.6572C10.3853 23.3192 10.2287 22.8112 10.1861 21.8751C10.1401 20.8631 10.1309 20.5591 10.1309 17.9955C10.1309 15.4319 10.1401 15.1295 10.1861 14.1175C10.2289 13.1815 10.3853 12.6735 10.5167 12.335C10.6907 11.887 10.8991 11.567 11.2351 11.231C11.5711 10.895 11.8911 10.687 12.3391 10.5126C12.6775 10.3806 13.1857 10.2246 14.1217 10.1816C15.0073 10.1416 15.3505 10.1296 17.1397 10.1276V10.13ZM23.1254 11.724C22.4894 11.724 21.9734 12.2394 21.9734 12.8757C21.9734 13.5117 22.4894 14.0277 23.1254 14.0277C23.7614 14.0277 24.2774 13.5117 24.2774 12.8757C24.2774 12.2396 23.7614 11.7236 23.1254 11.7236V11.724ZM13.0708 18.0001C13.0708 15.2775 15.2782 13.0701 18.0009 13.0701H18.0007C20.7233 13.0701 22.9301 15.2775 22.9301 18.0001C22.9301 20.7227 20.7235 22.9292 18.0009 22.9292C15.2782 22.9292 13.0708 20.7227 13.0708 18.0001Z" fill="black"/>
<path id="Shape" d="M18.0008 14.8001C19.768 14.8001 21.2008 16.2327 21.2008 18.0001C21.2008 19.7673 19.768 21.2001 18.0008 21.2001C16.2334 21.2001 14.8008 19.7673 14.8008 18.0001C14.8008 16.2327 16.2334 14.8001 18.0008 14.8001Z" fill="black"/>
</g>
</svg>
