<svg width="79" height="15" viewBox="0 0 79 15" fill="none" xmlns="http://www.w3.org/2000/svg">
<path d="M5.12 14.2C4.25333 14.2 3.43333 14.1333 2.66 14C1.88667 13.8533 1.22667 13.6533 0.68 13.4V10.3C1.28 10.58 1.94667 10.8067 2.68 10.98C3.41333 11.1533 4.1 11.24 4.74 11.24C5.40667 11.24 5.90667 11.1867 6.24 11.08C6.58667 10.96 6.76 10.7 6.76 10.3C6.76 10.02 6.66 9.8 6.46 9.64C6.27333 9.48 5.97333 9.33333 5.56 9.2C5.16 9.06667 4.63333 8.9 3.98 8.7C3.11333 8.42 2.42667 8.11333 1.92 7.78C1.41333 7.44667 1.04667 7.04 0.82 6.56C0.606667 6.08 0.5 5.49333 0.5 4.8C0.5 3.53333 0.946667 2.57333 1.84 1.92C2.74667 1.25333 4.08667 0.919999 5.86 0.919999C6.56667 0.919999 7.29333 0.979999 8.04 1.1C8.8 1.22 9.41333 1.35333 9.88 1.5V4.62C9.25333 4.36667 8.65333 4.18667 8.08 4.08C7.50667 3.97333 6.96667 3.92 6.46 3.92C5.87333 3.92 5.37333 3.96667 4.96 4.06C4.54667 4.15333 4.34 4.39333 4.34 4.78C4.34 5.11333 4.51333 5.36 4.86 5.52C5.22 5.66667 5.85333 5.86 6.76 6.1C7.81333 6.38 8.61333 6.72 9.16 7.12C9.72 7.52 10.1 7.98667 10.3 8.52C10.5 9.04 10.6 9.63333 10.6 10.3C10.6 11.4733 10.1467 12.42 9.24 13.14C8.33333 13.8467 6.96 14.2 5.12 14.2ZM15.7608 14.2C14.4941 14.2 13.5741 13.88 13.0008 13.24C12.4274 12.6 12.1408 11.7333 12.1408 10.64V7.3H10.9008V4.52H12.1408V2.58L15.9008 1.68V4.52H18.0808L17.9408 7.3H15.9008V10.36C15.9008 10.76 16.0008 11.0467 16.2008 11.22C16.4008 11.38 16.7074 11.46 17.1208 11.46C17.5074 11.46 17.9008 11.3933 18.3008 11.26V13.76C17.5941 14.0533 16.7474 14.2 15.7608 14.2ZM24.4384 14.2C22.5451 14.2 21.1451 13.78 20.2384 12.94C19.3451 12.1 18.8984 10.8733 18.8984 9.26C18.8984 7.66 19.3518 6.44 20.2584 5.6C21.1651 4.74667 22.5584 4.32 24.4384 4.32C26.3318 4.32 27.7318 4.74667 28.6384 5.6C29.5584 6.44 30.0184 7.66 30.0184 9.26C30.0184 10.8733 29.5651 12.1 28.6584 12.94C27.7518 13.78 26.3451 14.2 24.4384 14.2ZM24.4384 11.46C25.0518 11.46 25.4918 11.2867 25.7584 10.94C26.0384 10.5933 26.1784 10.0333 26.1784 9.26C26.1784 8.5 26.0384 7.94667 25.7584 7.6C25.4918 7.24 25.0518 7.06 24.4384 7.06C23.8384 7.06 23.4051 7.24 23.1384 7.6C22.8718 7.94667 22.7384 8.5 22.7384 9.26C22.7384 10.0333 22.8718 10.5933 23.1384 10.94C23.4051 11.2867 23.8384 11.46 24.4384 11.46ZM37.7744 14.2C35.481 14.2 33.7344 13.64 32.5344 12.52C31.3344 11.3867 30.7344 9.77333 30.7344 7.68C30.7344 5.52 31.3544 3.85333 32.5944 2.68C33.8344 1.50667 35.6477 0.919999 38.0344 0.919999C38.8344 0.919999 39.5544 0.966666 40.1944 1.06C40.8477 1.15333 41.461 1.29333 42.0344 1.48V4.7C41.4477 4.47333 40.841 4.32 40.2144 4.24C39.5877 4.16 38.9477 4.12 38.2944 4.12C37.0544 4.12 36.121 4.4 35.4944 4.96C34.881 5.52 34.5744 6.42667 34.5744 7.68C34.5744 8.85333 34.841 9.7 35.3744 10.22C35.921 10.74 36.721 11 37.7744 11C38.121 11 38.4477 10.98 38.7544 10.94C39.061 10.8867 39.3477 10.82 39.6144 10.74V8.86H37.0544V6.54H42.7544V13.02C42.261 13.3267 41.601 13.6 40.7744 13.84C39.961 14.08 38.961 14.2 37.7744 14.2ZM44.1617 14V4.52H47.7817L47.8817 5.28C48.2684 5.05333 48.7617 4.84667 49.3617 4.66C49.9617 4.47333 50.5684 4.36 51.1817 4.32V7.12C50.8351 7.14667 50.4551 7.19333 50.0417 7.26C49.6417 7.32667 49.2484 7.41333 48.8617 7.52C48.4884 7.61333 48.1751 7.72 47.9217 7.84V14H44.1617ZM54.6022 14.2C54.0022 14.2 53.4422 14.0933 52.9222 13.88C52.4155 13.6667 52.0089 13.3333 51.7022 12.88C51.3955 12.4267 51.2422 11.8533 51.2422 11.16C51.2422 10.16 51.5755 9.38667 52.2422 8.84C52.9089 8.28 53.9155 8 55.2622 8H57.7222V7.82C57.7222 7.44667 57.5689 7.17333 57.2622 7C56.9555 6.82667 56.4155 6.74 55.6422 6.74C54.5489 6.74 53.4689 6.90667 52.4022 7.24V4.98C52.8822 4.79333 53.4822 4.64 54.2022 4.52C54.9222 4.38667 55.6555 4.32 56.4022 4.32C57.9089 4.32 59.1022 4.62667 59.9822 5.24C60.8622 5.85333 61.3022 6.82667 61.3022 8.16V14H58.0222L57.8422 13.24C57.5089 13.5333 57.0755 13.7667 56.5422 13.94C56.0222 14.1133 55.3755 14.2 54.6022 14.2ZM55.8822 12C56.3089 12 56.6689 11.9267 56.9622 11.78C57.2689 11.6333 57.5222 11.4533 57.7222 11.24V10.06H55.9022C55.0755 10.06 54.6622 10.3867 54.6622 11.04C54.6622 11.68 55.0689 12 55.8822 12ZM63.0094 14V4.52H66.4894L66.5894 5.28C67.0027 5 67.4627 4.77333 67.9694 4.6C68.4894 4.41333 69.056 4.32 69.6694 4.32C70.2827 4.32 70.7627 4.40667 71.1094 4.58C71.456 4.75333 71.736 5.00667 71.9494 5.34C72.376 5.03333 72.856 4.78667 73.3894 4.6C73.936 4.41333 74.576 4.32 75.3094 4.32C76.416 4.32 77.2294 4.61333 77.7494 5.2C78.2694 5.77333 78.5294 6.65333 78.5294 7.84V14H74.8294V8.28C74.8294 7.85333 74.7427 7.55333 74.5694 7.38C74.396 7.19333 74.1094 7.1 73.7094 7.1C73.1894 7.1 72.7627 7.28667 72.4294 7.66C72.456 7.83333 72.4694 8 72.4694 8.16C72.4694 8.30667 72.4694 8.47333 72.4694 8.66V14H68.9894V8.22C68.9894 7.83333 68.9227 7.55333 68.7894 7.38C68.656 7.19333 68.4027 7.1 68.0294 7.1C67.776 7.1 67.5294 7.16667 67.2894 7.3C67.0494 7.43333 66.836 7.59333 66.6494 7.78V14H63.0094Z" fill="#EFEEEE"/>
</svg>
